@startuml
'https://plantuml.com/class-diagram
class ApplicationStart
class ConnectionPool
class Login

ConnectionPool *--  ApplicationStart
ApplicationStart *--  Login
ApplicationStart *--  GenerateItemList
ApplicationStart *--  GenerateItemListForUser
ApplicationStart *--  ModifyOrders
ApplicationStart *--  ModifyOrdersByUser
ApplicationStart *--  NewUser
ApplicationStart *--  OrderCarport
ApplicationStart *--  ShowOrdersForAdmin
ApplicationStart *--  ShowOrdersForUser
ApplicationStart *--  ShowUsers

UserFacade o-- UserMapper
UserMapper o-- User
Login --* UserFacade
NewUser --* UserFacade
ShowUsers --* UserFacade


OrderFacade o-- OrderMapper
OrderMapper o-- Order
ModifyOrders --* OrderFacade
ModifyOrdersByUser --* OrderFacade
GenerateItemListForUser --*  OrderFacade
OrderCarport --* OrderFacade
ShowOrdersForAdmin --*  OrderFacade
ShowOrdersForUser --* OrderFacade

ItemListFacade o-- ItemListMapper
ItemListMapper o-- ItemList
GenerateItemListForUser --* ItemListFacade
GenerateItemList --* ItemListFacade

GenerateItemList --* Calculations
Calculations --* ProductFacade
Calculations --* ProductVariantFacade
ProductFacade o-- ProductMapper
ProductMapper o-- Product

ProductVariantFacade o-- ProductVariantMapper




class GenerateItemList {
}

class GenerateItemListForUser {
}

class Logout {
}

class ModifyOrders{
}

class ModifyOrdersByUser{
}

class NewUser {
}

class OrderCarport {
}

class ShowOrdersForAdmin {
}

class ShowOrdersForUser {
}

class ShowUsers {
}

class User {
    -int id
    -String fullName
    -String email
    -String password
    -String phoneNumber
    -String role
}
class UserMapper
{
    createUser()
    showUsers()
    modifyUser()
    login()
}
class UserFacade
{
    createUser()
    showUsers()
    modifyUser()
    login()
}


class Order
{
    -int orderId
    -double length
    -double width
    -double price
    -String material
    -String status
    -int userId
}
class OrderMapper
{
    createOrder()
    modifyLength()
    modifyWidth()
    modifyPrice()
    modifyMaterial()
    modifyStatus()
    deleteOrder()
    showOrders()
}
class OrderFacade
{
  createOrder()
    modifyLength()
    modifyWidth()
    modifyPrice()
    modifyMaterial()
    modifyStatus()
    deleteOrder()
    showOrders()
}

class ItemList
{
    -int itemListId
    -String description
    -int price
    -int orderId
    -int quantity

}
class ItemListMapper
{
    createItemList()
    getItemList()
    modifyDescription()
    modifyPrice()
    modifyQuantity()
    deleteItemList()
    showItemLists()
}
class ItemListFacade
{
    createItemList()
    getItemList()
    modifyDescription()
    modifyPrice()
    modifyQuantity()
    deleteItemList()
    showItemLists()
}

class Calculations
{
    calculateCarport()
    calculateRem()
    calculateRafters()
    calculatePosts()
    calculateSternBoardsMainMethod()
}

class Product
{
   -int productId;
   -String productDescription;
   -double unit;
   -double pricePerUnit;
}
class ProductMapper{
    getPrice()
    modifyPricePerUnit()
    modifyDescription()
}

class ProductFacade{
    getPrice()
    modifyPricePerUnit()
    modifyDescription()
}

class ProductVariantFacade{
    modifyQuantity()
    getProductVariantQuantity()
}

class ProductVariantMapper{
    getProductVariantQuantity()
    modifyQuantity()
}


@enduml